<?xml version="1.0" standalone="no"?>
<!DOCTYPE svg PUBLIC "-//W3C//DTD SVG 1.1//EN" "http://www.w3.org/Graphics/SVG/1.1/DTD/svg11.dtd" >
<svg xmlns="http://www.w3.org/2000/svg">
<metadata>
This is a custom SVG font generated by IcoMoon.
<iconset grid="16"></iconset>
</metadata>
<defs>
<font id="icomoon" horiz-adv-x="512" >
<font-face units-per-em="512" ascent="480" descent="-32" />
<missing-glyph horiz-adv-x="512" />
<glyph class="hidden" unicode="&#xf000;" d="M0,480L 512 -32L0 -32 z" horiz-adv-x="0" />
<glyph unicode="&#xe000;" d="M 192.288,367.328L 510.816,367.328L 510.816,303.616L 192.288,303.616zM 192.288,144.384L 510.816,144.384L 510.816,80.672L 192.288,80.672zM 1.184,255.84L 510.816,255.84L 510.816,192.128L 1.184,192.128z" data-tags="ml-align-right" />
<glyph unicode="&#xe001;" d="M 1.184,144.384L 319.712,144.384L 319.712,80.672L 1.184,80.672zM 1.184,367.328L 319.712,367.328L 319.712,303.616L 1.184,303.616zM 1.184,255.84L 510.816,255.84L 510.816,192.128L 1.184,192.128z" data-tags="ml-align-left" />
<glyph unicode="&#xe002;" d="M 1.184,144.384L 510.816,144.384L 510.816,80.672L 1.184,80.672zM 1.184,367.328L 510.816,367.328L 510.816,303.616L 1.184,303.616zM 1.184,255.84L 510.816,255.84L 510.816,192.128L 1.184,192.128z" data-tags="ml-align-justify" />
<glyph unicode="&#xe003;" d="M 96.736,367.328L 415.264,367.328L 415.264,303.616L 96.736,303.616zM 96.736,144.384L 415.264,144.384L 415.264,80.672L 96.736,80.672zM 1.184,255.84L 510.816,255.84L 510.816,192.128L 1.184,192.128z" data-tags="ml-align-center" />
<glyph unicode="&#xe004;" d="M 483.488,328.192L 418.752,392.928L 210.208,184.416L 93.28,301.376L 28.512,236.64L 210.112,55.072L 210.208,55.168L 210.336,55.072 z" data-tags="ml-checkmark" />
<glyph unicode="&#xe005;" d="M 363.68,224l-215.36-179.456L 148.32,403.456 L 363.68,224z" data-tags="ml-arrow-right" />
<glyph unicode="&#xe006;" d="M 148.32,224l 215.36,179.456l0-358.912 L 148.32,224z" data-tags="ml-arrow-left" />
<glyph unicode="&#xe007;" d="M 256,116.32l-179.456,215.36l 358.912,0 L 256,116.32z" data-tags="ml-arrow-down" />
<glyph unicode="&#xe009;" d="M 256,59.408c 72.928,0, 132.064,58.064, 132.064,129.456l 76.976,0 
	C 465.024,75.664, 371.52-16, 256-16S 46.976,75.664, 46.976,188.864c0,111.168, 90.416,201.6, 203.152,204.528L 249.952,464l 119.552-105.28l-119.232-106.080l0,65.344 
	c-70.304-2.944-126.336-59.6-126.336-129.12C 123.92,117.472, 183.072,59.408, 256,59.408z" data-tags="ml-refresh" />
<glyph unicode="&#xe019;" d="M 255.888,119.696c-17.312,0-31.296-13.984-31.296-31.312
	c0-17.312, 13.984-31.296, 31.296-31.296c 17.328,0, 31.312,13.984, 31.312,31.296C 287.2,105.712, 273.216,119.696, 255.888,119.696z M 287.2,307.552
	c0,11.472-9.392,20.88-20.88,20.88l-20.864,0 c-11.488,0-20.88-9.392-20.88-20.88l0-125.248 c0-11.472, 9.392-20.864, 20.88-20.864l 20.864,0 
	c 11.488,0, 20.88,9.392, 20.88,20.864L 287.2,307.552 z M 465.872,15.344L 46.144,15.344 c-26.928,0-37.776,13.984-24.432,37.36L 231.68,414.224
	c 13.36,23.584, 35.248,25.040, 48.624,1.472l 209.984-363.616C 503.648,28.496, 492.784,15.344, 465.872,15.344z" data-tags="ml-alert" />
<glyph unicode="&#xe018;" d="M 352.624,318.992c-3.36,8.656-8.688,16.832-16.112,24.768
	C 328.848,351.68, 318.72,358.4, 306.464,363.696c-12.512,5.056-27.872,8.176-46.384,8.176c-14.192,0-27.376-2.656-38.944-7.456
	c-11.776-5.296-21.424-12.496-29.808-21.376c-8.176-9.136-14.64-19.696-18.992-31.248c-4.576-11.552-7.2-24.496-7.2-37.984l 48.064,0 
	c0,6.736, 0.72,13.216, 2.176,19.216c 1.68,6, 4.32,11.296, 7.936,15.648c 3.376,4.576, 7.92,7.936, 13.216,11.056
	c 5.264,2.624, 12.016,4.080, 19.456,4.080c 10.848,0, 19.472-3.12, 25.952-8.656c 6.016-5.52, 9.392-14.176, 9.392-25.952
	c0-6.992-1.2-13.008-3.84-17.552c-2.88-4.576-6.272-9.136-10.336-12.736c-4.56-3.856-9.152-7.68-14.4-11.296
	c-5.312-3.856-10.128-8.4-14.688-13.472c-4.336-5.28-8.656-11.776-12.016-19.232c-3.616-7.44-5.536-16.832-6.288-27.872l0-17.312 l 51.696,0 
	l0,14.672 c 0.96,7.68, 3.376,13.92, 7.696,19.232c 4.080,5.28, 8.88,9.856, 14.64,13.472l 18.032,12.016c 6,3.824, 12.016,8.64, 17.088,14.416
	c 5.264,5.52, 9.6,12.256, 13.184,20.656c 3.392,7.696, 5.296,18.032, 5.296,30.288C 357.424,301.92, 355.52,309.856, 352.624,318.992z M 230.032,83.184
	l 51.936,0 l0,48.080 l-51.936,0 L 230.032,83.184 z M 261.28-12.336c-132.4,0-240,107.6-240,240s 107.6,240, 240,240c 132.192,0, 240-107.6, 240-240
	S 393.472-12.336, 261.28-12.336z" data-tags="ml-question" />
<glyph unicode="&#xe017;" d="M 286.8,360.336c-18.608,0-34.8-15.392-34.8-34.208
	c0-17.6, 11.408-28.992, 28.816-28.992c 18.976,0, 35.184,14.416, 35.184,34C 316,348.736, 303.6,360.336, 286.8,360.336z M 175.808,221.952
	c0-2.608, 2.592-5.6, 5.584-5.6c 7.616,0, 28.016,37.2, 43.616,37.2c 3.408,0, 7.216-3.808, 4.208-11.6l-29.616-75.216
	c-3.008-7.184-17.376-42.192-17.376-62.784c0-16.208, 10.576-23.408, 25.776-23.408c 42.816,0, 92.208,52.992, 92.208,65.376
	c0,3.808-2.8,6.4-4.992,6.4c-6,0-29.2-36.4-41.792-36.4c-3.408,0-5.216,3.024-5.216,6.032c0,6.784, 4.608,17.6, 7.216,23.968
	l 30.4,83.216c 15.376,41.408-4.224,52.608-22.4,52.608c-24.4,0-46.4-12.384-63.408-28.592C 194.592,247.552, 175.808,229.552, 175.808,221.952z
	 M 256-19.664c-132.4,0-240,107.6-240,240s 107.6,240, 240,240c 132.192,0, 240-107.6, 240-240S 388.192-19.664, 256-19.664z" data-tags="ml-info" />
<glyph unicode="&#xe016;" d="M 376,251.952l-240,0 l0-60 l 240,0 L 376,251.952 z M 256-18.048
	c-132.4,0-240,107.6-240,240s 107.6,240, 240,240c 132.192,0, 240-107.6, 240-240S 388.192-18.048, 256-18.048z" data-tags="ml-delete" />
<glyph unicode="&#xe015;" d="M 376.368,252.048l-90.288,0 L 286.080,342.32 l-60.192,0 l0-90.272 L 135.632,252.048 l0-60.192 l 90.288,0 l0-90.288 
	l 60.192,0 l0,90.288 l 90.288,0 L 376.4,252.048 z M 256-18.048c-132.4,0-240,107.6-240,240s 107.6,240, 240,240c 132.192,0, 240-107.6, 240-240S 388.192-18.048, 256-18.048z" data-tags="ml-add" />
<glyph unicode="&#xe014;" d="M 362.4,160.16L 298.56,224l 63.824,63.824l-42.56,42.56L 256,266.56l-63.84,63.84
	l-42.544-42.56L 213.44,224l-63.824-63.84l 42.56-42.56L 256,181.44l 63.84-63.84L 362.4,160.16z M 256-16C 123.6-16, 16,91.6, 16,224S 123.6,464, 256,464
	c 132.192,0, 240-107.6, 240-240S 388.192-16, 256-16z" data-tags="ml-remove" />
<glyph unicode="&#xe008;" d="M 355.216,336l-144.080-150.336l-54.368,56.88l-39.552-41.392l 92.304-96.432
	l 1.632,1.584l 1.6-1.584l 182.032,189.872L 355.216,336z M 256-19.648c-132.4,0-240,107.584-240,240c0,132.4, 107.6,240, 240,240c 132.192,0, 240-107.6, 240-240
	C 496,87.936, 388.192-19.648, 256-19.648z" data-tags="ml-check" />
<glyph unicode="&#xe00a;" d="M 256,331.68l 179.456-215.36L 76.544,116.32 L 256,331.68z" data-tags="ml-arrow-up" />
<glyph unicode="&#xe01b;" d="M 255.264,316.064c-50.528,0-91.328-40.976-91.328-91.52
	c0-50.736, 40.8-92.976, 91.328-92.976c 50.336,0, 93.152,42.24, 93.152,92.976C 348.416,275.088, 305.616,316.064, 255.264,316.064z M 431.792,175.488
	c-4.24-14.944-10.32-28.976-18.080-42.256l 1.104,1.12c0,0, 40.4-50.016, 16.256-74.176l-11.824-11.792c-18.432-18.272-64.368,11.056-73.776,17.328
	c-14.016-7.744-28.976-13.664-44.832-17.696l 4.432-0.192c0,0-8.48-63.824-42.816-63.824l-11.792,0 c-27.296,0-41.888,59.952-43.36,65.856
	c-16.032,4.416-31.168,11.248-44.992,19.92l 4.24-4.608c0,0-50.528-39.84-74.72-15.68l-10.704,8.848c-19.36,19.392, 14.016,71.776, 17.536,77.12
	c-7.008,12.544-12.736,25.808-16.784,39.824C 75.6,176.576, 16,191.152, 16,218.464l0,11.792 c0,31.168, 55.52,40.976, 65.488,42.448
	c 3.872,14.192, 9.616,27.472, 16.592,40.032C 95.504,316.784, 60.080,369.92, 79.824,389.472l 11.264,9.616c 22.112,22.128, 68.064-11.264, 75.792-16.976
	c 12.544,7.184, 26.208,13.072, 40.592,17.136C 210.064,409.6, 224.448,464, 250.464,464l 11.792,0 c 29.888,0, 40.032-50.912, 42.256-64.208
	c 14.576-4.032, 28.4-9.952, 41.328-17.152c 8.656,5.728, 56.624,36.176, 75.056,17.536l 10.704-11.264c 21.216-21.2-9.040-64.56-16.976-75.056
	c 7.392-12.928, 13.488-26.752, 17.344-41.52l 0.192,0.752c0,0, 63.824-8.48, 63.824-42.816l0-11.792 C 496,193.008, 443.792,178.624, 431.792,175.488z" data-tags="ml-settings" />
<glyph unicode="&#xe00b;" d="M 23.2,368.176C 28.512,374.336, 36.064,378.288, 44.8,378.288L 256,378.288 l0-185.136 
	l-0.496-0.336L 23.2,368.176z M 256,193.136L 256,378.288 l 211.2,0 c 8.736,0, 16.288-3.952, 21.6-10.112L 256.496,192.8L 256,193.136z M 16,344.336l 130.448-98.56
	l-73.024-111.6l 93.952,95.824l 88.128-66.512L 256,163.824l0-94.112 L 16,69.712 L 16,344.336 z M 256,69.712l0,94.112 l 0.496-0.336l 88.128,66.512l 93.952-95.824
	l-73.040,111.6L 496,344.336l0-274.608 L 256,69.728 z" data-tags="ml-email" />
<glyph unicode="&#xe00c;" d="M 331.712,355.152C 331.712,388.768, 305.696,416, 273.504,416l-35.008,0 
	c-32.208,0-58.24-27.232-58.24-60.848l0-73.552 l 151.456,0 L 331.712,355.152 z M 240.512,123.36l0-61.936 l 30.976,0 L 271.488,123.36 c 16.72,7.44, 31.904,23.376, 31.904,43.024
	c0,26.48-21.232,48-47.392,48s-47.392-21.52-47.392-48C 208.608,146.736, 223.776,130.8, 240.512,123.36z M 413.472-16L 98.528-16 
	c-15.648,0-28.336,12.864-28.336,28.8l0,240 c0,15.968, 12.704,28.816, 28.336,28.816l 34.528,0 L 133.056,368 c0,52.976, 42.272,96, 94.592,96l 56.688,0 
	c 52.336,0, 94.592-43.024, 94.592-96l0-86.384 l 34.528,0 c 15.648,0, 28.336-12.848, 28.336-28.816l0-240 C 441.808-3.136, 429.104-16, 413.472-16z" data-tags="ml-lock" />
<glyph unicode="&#xe010;" d="M 437.84,237.104c 0.544,2.96, 0.544,5.904, 0.544,8.672
	c0,79.744-64.048,144.368-142.88,144.368c-57.056,0-106.16-33.776-129.040-82.512C 155.376,316.32, 141.536,321.488, 126.592,321.488
	c-36.752,0-66.288-29.728-66.288-66.304c0-7.008, 1.296-13.472, 2.96-19.728C 35.008,217.904, 16,187.072, 16,151.072
	c0-50.96, 42.656-92.672, 95.072-93.232l 1.104,0 l 0.56,0 L 113.28,57.84 l 283.008,0 l 5.168,0 C 453.92,57.84, 496,100.304, 496,152c0,39.52-23.632,72.928-58.16,87.136
	L 437.84,237.104 z" data-tags="ml-cloud" />
<glyph unicode="&#xe00f;" d="M 61.136,306.496L 60.992,381.504c0,13.36, 10.656,30, 23.568,30l 116.832,0 
	c 12.928,0, 24.608-13.040, 24.608-30l0-15.008 l 195.008,0 c 12.896,0, 29.856-14.4, 29.856-27.744l0-32.256 L 224.8,306.496 L 61.136,306.496 z M 464.048,60.96
	c0-13.504-10.8-24.448-24-24.448L 71.952,36.512 c-13.2,0-24,10.96-24,24.448L 16,272.896c0,13.52, 8.256,18.608, 30,18.608l 420,0 
	C 484.32,291.504, 496,286.4, 496,272.896L 464.048,60.96z" data-tags="ml-folder" />
<glyph unicode="&#xe00d;" d="M 438.4,108.8c 21.104,0, 38.384-17.28, 38.384-38.384
	c0-21.12-17.28-38.4-38.384-38.4c-21.12,0-38.4,17.28-38.4,38.4C 400,91.52, 417.28,108.8, 438.4,108.8z M 208,108.8c 21.104,0, 38.4-17.28, 38.4-38.384
	c0-21.12-17.296-38.4-38.4-38.4s-38.4,17.28-38.4,38.4C 169.6,91.52, 186.896,108.8, 208,108.8z M 476.8,166.4c 10.56,0, 19.2-8.656, 19.2-19.2
	c0-10.56-8.64-19.2-19.2-19.2L 184,128 c-8.432,0-15.568,5.36-18.032,12.864L 83.968,377.6L 35.2,377.6 C 24.64,377.6, 16,386.256, 16,396.8C 16,407.36, 24.64,416, 35.2,416L 97.6,416 
	c 8.432,0, 15.568-5.376, 18.048-12.864L 197.632,166.4L 476.8,166.4 z M 477.36,185.968L 234.496,185.968 c-8.256,0-15.168,5.392-17.664,12.88L 151.36,371.648
	C 150.784,373.568, 150.4,375.68, 150.4,377.968c0,10.56, 8.256,19.2, 18.624,19.2l 308.336,0 c 10.384,0, 18.64-8.64, 18.64-19.2l0-172.8 
	C 496,194.432, 487.744,185.968, 477.36,185.968z" data-tags="ml-cart" />
<glyph unicode="&#xe01a;" d="M 203.792,422.16c 75.008,0, 135.76-60.752, 135.76-135.616
	c0-74.848-60.768-135.6-135.76-135.6s-135.728,60.752-135.728,135.6C 68.064,361.408, 128.8,422.16, 203.792,422.16z M 202,102.048
	c 33.456,0, 64.816,8.704, 91.952,23.696L 439.616-16L 496,38.912l-142.8,138.896c 21.888,29.696, 34.8,65.856, 34.8,105.152
	C 388,383.008, 304.752,464, 202,464S 16,383.008, 16,282.96C 16,183.040, 99.248,102.048, 202,102.048z" data-tags="ml-search" />
<glyph unicode="&#xe00e;" d="M 149.504,298.768L 68.288,298.768 l0-209.136 l 105.776,0 c 26.848-3.84, 51.072,0, 51.072,0
	l 156.864,0 l0,68.848 l 52.304,39.92l0-126.208 c0-16.912-17.776-34.864-35.728-34.864L 50.848,37.328 C 34.128,37.328, 16,55.104, 16,71.664L 16,316.208 
	c0,16.912, 17.76,34.864, 35.712,34.864l 178.656,0 C 205.456,339.888, 175.12,322.832, 149.504,298.768z M 496,286.208l-183.712-124.96l0,81.216 
	c-40.432,0-48.272-1.728-65.36-4.192c-102.144-11.84-129.136-77.024-129.136-77.024c0,158.256, 194.496,174.816, 194.496,174.816L 312.288,410.672 L 496,286.208z" data-tags="ml-export" />
<glyph unicode="&#xe011;" d="M 257.296,363.376c-16.064,0-29.344,13.296-29.344,29.36
	c0,16.24, 13.28,29.36, 29.344,29.36c 16.416,0, 29.536-13.12, 29.536-29.36C 286.832,376.672, 273.712,363.376, 257.296,363.376z M 495.456,144.064
	l-34.896,113.168l-87.152-73.856c-1.28-0.912-2.368-2.192-3.312-3.488c-6.832-9.232-4.992-22.352, 4.256-29.168
	c 1.84-1.296, 3.872-2.224, 5.728-2.976l 25.648-6.096c-17.344-49.104-60.192-86.384-112.8-96.928L 292.928,327.008 c 25.856,10.896, 43.568,36.352, 43.568,65.712
	C 336.48,432.048, 296.992,464, 257.296,464c-39.52,0-82.352-31.952-82.352-71.264c0-29.36, 18.464-54.832, 44.144-65.712l0-282.656 
	c-53.728,9.616-98.224,47.264-116.128,97.296l 28.976,6.096c 2.048,0.752, 3.888,1.664, 5.728,2.976c 9.232,6.816, 11.264,19.936, 4.432,29.168
	c-1.12,1.296-2.224,2.384-3.312,3.488l-87.152,73.856l-35.072-113.168C 16.192,142.4, 16,140.752, 16,139.056c0-11.424, 9.408-20.864, 21.040-20.864
	c 2.208,0, 4.256,0.368, 6.288,0.928l 16.784,5.552C 87.248,43.072, 164.608-16, 256-16s 168.736,59.072, 195.856,140.864l 16.992-5.728
	c 1.856-0.544, 3.904-0.928, 6.096-0.928c 11.664,0, 21.056,9.44, 21.056,20.864C 496,140.752, 495.808,142.576, 495.456,144.064z" data-tags="ml-anchor" />
<glyph unicode="&#xe012;" d="M 496,224L 422,224L 422,15.008L 300,15.008L 300,132.992L 256,132.992L 212,132.992L 212,15.008L 90,15.008L 90,224L 16,224L 256,432.992L 346,354.72L 346,403.008L 406,403.008L 406,302.512 z" data-tags="ml-home" />
<glyph unicode="&#xe013;" d="M 256,264c-22,0-40-18-40-40s 18-40, 40-40
	s 40,18, 40,40S 278,264, 256,264z M 256,124c-55.184,0-100,44.816-100,100S 200.816,324, 256,324s 100-44.816, 100-100
	S 311.184,124, 256,124z M 256,384C 123.408,384, 16,224, 16,224s 107.408-160, 240-160s 240,160, 240,160S 388.592,384, 256,384z" data-tags="ml-eye" />
<glyph unicode="&#xe01c;" d="M 372.848,111.504c-3.008-40.192, 18.752-82.496, 18.752-82.496
	c-57.28,13.792-75.296,46.336-80.848,66c-17.552-2.848-35.856-4.352-54.752-4.352c-132.592,0-240,73.504-240,164.112
	C 16,345.504, 123.408,419.008, 256,419.008s 240-73.504, 240-164.256C 496,193.088, 446.336,139.552, 372.848,111.504z" data-tags="ml-chat" />
<glyph unicode="&#xe01d;" d="M 361.024,435.2C 318.4,435.2, 280.768,417.328, 256,390.272
	C 231.232,417.328, 193.6,435.2, 150.976,435.2C 76.48,435.2, 16,382.016, 16,316.352C 16,171.2, 256,12.8, 256,12.8s 240,158.4, 240,303.568
	C 496,382.016, 435.52,435.2, 361.024,435.2z" data-tags="ml-heart" />
<glyph unicode="&#x20;" horiz-adv-x="256" />
</font>
</defs>
</svg>
